<svg width="25" height="25" viewBox="0 0 25 25" fill="none" xmlns="http://www.w3.org/2000/svg">
<path d="M12.5 2.08331C10.8424 2.08331 9.25269 2.74179 8.08058 3.9139C6.90848 5.086 6.25 6.67571 6.25 8.33331C6.25 9.81144 6.56458 10.7791 7.42187 11.8489L12.5 17.7083L17.5781 11.8489C18.4354 10.7791 18.75 9.81144 18.75 8.33331C18.75 6.67571 18.0915 5.086 16.9194 3.9139C15.7473 2.74179 14.1576 2.08331 12.5 2.08331Z" stroke="black" stroke-width="2.08333" stroke-linecap="round" stroke-linejoin="round"/>
<path d="M5.20837 15.7739C3.28025 16.5312 2.08337 17.5843 2.08337 18.75C2.08337 21.0521 6.74692 22.9166 12.5 22.9166C18.2532 22.9166 22.9167 21.0521 22.9167 18.75C22.9167 17.5843 21.7198 16.5312 19.7917 15.7739" stroke="black" stroke-width="2.08333" stroke-linecap="round" stroke-linejoin="round"/>
<path d="M12.5 9.37496C13.0753 9.37496 13.5417 8.90859 13.5417 8.33329C13.5417 7.758 13.0753 7.29163 12.5 7.29163C11.9247 7.29163 11.4584 7.758 11.4584 8.33329C11.4584 8.90859 11.9247 9.37496 12.5 9.37496Z" stroke="black" stroke-width="2.08333" stroke-linecap="round" stroke-linejoin="round"/>
</svg>
