<svg width="25" height="25" viewBox="0 0 25 25" fill="none" xmlns="http://www.w3.org/2000/svg">
<path d="M1.04169 22.9167C1.04169 23.4792 1.51044 23.9584 2.08335 23.9584H15.625C16.2084 23.9584 16.6667 23.4792 16.6667 22.9167V21.875H1.04169V22.9167ZM8.85419 9.37502C4.94794 9.37502 1.04169 11.4584 1.04169 15.625H16.6667C16.6667 11.4584 12.7604 9.37502 8.85419 9.37502ZM3.77085 13.5417C4.9271 11.9271 7.38544 11.4584 8.85419 11.4584C10.3229 11.4584 12.7813 11.9271 13.9375 13.5417H3.77085ZM1.04169 17.7084H16.6667V19.7917H1.04169V17.7084ZM18.75 5.20835V1.04169H16.6667V5.20835H11.4584L11.6979 7.29169H21.6563L20.1979 21.875H18.75V23.9584H20.5417C21.4167 23.9584 22.1354 23.2813 22.2396 22.4271L23.9584 5.20835H18.75Z" fill="black"/>
</svg>
