<svg width="25" height="25" viewBox="0 0 25 25" fill="none" xmlns="http://www.w3.org/2000/svg">
<path d="M11.0263 13.9103L11.9258 13.3905L10.7593 12.4093L11.0263 13.9103Z" fill="#003C71"/>
<path d="M22.1395 12.49C22.1395 12.2688 22.0307 12.0742 21.8652 11.9522L21.8687 11.9462L19.5377 10.6005L20.8795 8.2765L20.875 8.27375C20.9173 8.17795 20.9364 8.07354 20.9309 7.96896C20.9254 7.86438 20.8954 7.76257 20.8432 7.67175C20.7906 7.58108 20.7173 7.50409 20.6293 7.44702C20.5414 7.38995 20.4412 7.3544 20.337 7.34325V7.33675H17.645V4.6525H17.6395C17.6282 4.54838 17.5926 4.44837 17.5355 4.36055C17.4785 4.27274 17.4015 4.19958 17.311 4.147C17.2201 4.09458 17.118 4.06442 17.0132 4.05899C16.9084 4.05356 16.8038 4.07301 16.708 4.11575L16.7047 4.11L14.3345 5.4785L13.022 3.205L13.0172 3.20775C12.9554 3.12321 12.8746 3.0544 12.7812 3.00689C12.6879 2.95938 12.5847 2.9345 12.48 2.93425C12.2587 2.93425 12.064 3.043 11.9422 3.2085L11.9362 3.205L10.602 5.516L8.30447 4.1895L8.30172 4.19425C8.20592 4.15195 8.10151 4.13278 7.99693 4.13829C7.89235 4.14381 7.79054 4.17385 7.69972 4.226C7.609 4.27863 7.53197 4.35188 7.47485 4.43984C7.41773 4.5278 7.38214 4.62797 7.37097 4.73225H7.36422V7.40075H4.71122V7.406C4.6071 7.41726 4.50708 7.45286 4.41927 7.50993C4.33145 7.567 4.2583 7.64393 4.20572 7.7345C4.15353 7.8254 4.12349 7.92731 4.11801 8.03199C4.11254 8.13666 4.1318 8.24115 4.17422 8.337L4.16847 8.3405L5.47997 10.6123L3.13147 11.9683L3.13422 11.973C3.04968 12.0348 2.98087 12.1157 2.93336 12.209C2.88585 12.3023 2.86096 12.4055 2.86072 12.5103C2.86072 12.7315 2.96947 12.9263 3.13497 13.048L3.13147 13.054L5.46247 14.3997L4.12072 16.7237L4.12522 16.7262C4.08291 16.8221 4.06375 16.9265 4.06926 17.031C4.07478 17.1356 4.10482 17.2374 4.15697 17.3283C4.20962 17.4189 4.28289 17.4959 4.37085 17.553C4.4588 17.6101 4.55896 17.6456 4.66322 17.6567V17.6635H7.35497V20.3475H7.36047C7.38347 20.5515 7.49772 20.7425 7.68897 20.853C7.77995 20.9052 7.88196 20.9353 7.98673 20.9407C8.0915 20.9461 8.19607 20.9268 8.29197 20.8843L8.29522 20.89L10.6655 19.5215L11.978 21.795L11.9827 21.7922C12.0445 21.8768 12.1254 21.9456 12.2187 21.9931C12.312 22.0406 12.4152 22.0655 12.52 22.0658C12.7412 22.0658 12.936 21.957 13.0577 21.7917L13.0635 21.795L14.3977 19.484L16.6955 20.8105L16.6982 20.8057C16.794 20.8481 16.8984 20.8672 17.003 20.8617C17.1076 20.8562 17.2094 20.8261 17.3002 20.774C17.3911 20.7215 17.4682 20.6483 17.5253 20.5603C17.5825 20.4723 17.618 20.3721 17.629 20.2677H17.6357V17.5995H20.289V17.5942C20.3931 17.583 20.4931 17.5474 20.5809 17.4903C20.6687 17.4333 20.7419 17.3563 20.7945 17.2658C20.8467 17.1748 20.8767 17.0729 20.8822 16.9683C20.8876 16.8636 20.8684 16.7591 20.826 16.6632L20.8317 16.66L19.5202 14.3883L21.8687 13.0323L21.866 13.0275C21.9505 12.9657 22.0194 12.8848 22.0669 12.7914C22.1144 12.698 22.1393 12.5948 22.1395 12.49ZM9.38422 16.2992C8.82672 16.6212 8.32122 16.6652 7.89147 16.5497L7.95172 15.8755C8.27722 15.9697 8.69797 15.9692 9.09547 15.7395C9.43722 15.5422 9.50997 15.2983 9.41272 15.13C9.12297 14.6285 7.66472 15.9375 7.03797 14.8523C6.76097 14.3723 6.94622 13.7345 7.62547 13.3425C8.08372 13.0777 8.54422 12.9967 8.98197 13.0955L8.90472 13.7513C8.54647 13.6702 8.17772 13.7502 7.88372 13.9198C7.62422 14.0697 7.54197 14.267 7.64197 14.4403C7.90422 14.8943 9.38322 13.6313 10.0047 14.7075C10.3095 15.2348 10.1587 15.8525 9.38422 16.2992ZM12.87 14.2177L12.4065 13.834L11.1697 14.548L11.27 15.1415L10.5737 15.5433L10.02 12.0175L10.7897 11.5732L13.5662 13.816L12.87 14.2177ZM13.8082 13.6763L12.143 10.7917L12.7615 10.4345L14.1147 12.7782L15.3342 12.0743L15.6465 12.615L13.8082 13.6763ZM16.0612 12.3755L14.396 9.49125L16.437 8.3125L16.749 8.853L15.3222 9.677L15.6717 10.2825L17.0682 9.476L17.3802 10.0165L15.9837 10.8228L16.3632 11.4803L17.7902 10.6562L18.1025 11.1967L16.0612 12.3755Z" fill="#0194F3"/>
</svg>
