<svg width="22" height="22" viewBox="0 0 22 22" fill="none" xmlns="http://www.w3.org/2000/svg">
<path d="M9.82441 2.69362C10.0198 2.47538 10.259 2.30081 10.5265 2.18129C10.7939 2.06177 11.0836 2 11.3765 2C11.6694 2 11.9591 2.06177 12.2265 2.18129C12.4939 2.30081 12.7332 2.47538 12.9286 2.69362L13.6577 3.5082C13.8661 3.74101 14.1242 3.92396 14.4129 4.04351C14.7016 4.16305 15.0135 4.21614 15.3254 4.19882L16.4192 4.13841C16.7117 4.12228 17.0044 4.16804 17.2781 4.2727C17.5517 4.37736 17.8002 4.53857 18.0074 4.74579C18.2145 4.95302 18.3756 5.2016 18.4801 5.47531C18.5846 5.74902 18.6303 6.0417 18.614 6.33424L18.5536 7.42695C18.5364 7.73875 18.5896 8.05043 18.7091 8.33892C18.8287 8.6274 19.0115 8.88533 19.2442 9.09362L20.0588 9.82278C20.2772 10.0182 20.4519 10.2575 20.5715 10.525C20.6911 10.7926 20.753 11.0823 20.753 11.3754C20.753 11.6684 20.6911 11.9582 20.5715 12.2258C20.4519 12.4933 20.2772 12.7326 20.0588 12.928L19.2442 13.6572C19.0114 13.8656 18.8284 14.1236 18.7089 14.4123C18.5893 14.701 18.5363 15.0129 18.5536 15.3249L18.614 16.4186C18.6301 16.7112 18.5844 17.0038 18.4797 17.2775C18.375 17.5511 18.2138 17.7996 18.0066 18.0068C17.7994 18.2139 17.5508 18.375 17.2771 18.4795C17.0034 18.5841 16.7107 18.6297 16.4182 18.6134L15.3254 18.553C15.0136 18.5358 14.702 18.589 14.4135 18.7085C14.125 18.8281 13.8671 19.0109 13.6588 19.2436L12.9296 20.0582C12.7342 20.2766 12.4949 20.4513 12.2274 20.5709C11.9598 20.6906 11.6701 20.7524 11.377 20.7524C11.0839 20.7524 10.7942 20.6906 10.5266 20.5709C10.2591 20.4513 10.0198 20.2766 9.82441 20.0582L9.09524 19.2436C8.88684 19.0108 8.62875 18.8279 8.34006 18.7083C8.05138 18.5888 7.73951 18.5357 7.42753 18.553L6.33378 18.6134C6.04123 18.6295 5.74858 18.5838 5.47492 18.4791C5.20125 18.3745 4.95275 18.2132 4.74562 18.006C4.53849 17.7988 4.37741 17.5502 4.27288 17.2765C4.16835 17.0028 4.12272 16.7101 4.13899 16.4176L4.19941 15.3249C4.21656 15.0131 4.1634 14.7014 4.04386 14.4129C3.92431 14.1244 3.74145 13.8665 3.50878 13.6582L2.6942 12.929C2.47579 12.7336 2.30107 12.4943 2.18145 12.2268C2.06183 11.9593 2 11.6695 2 11.3764C2 11.0834 2.06183 10.7936 2.18145 10.5261C2.30107 10.2585 2.47579 10.0192 2.6942 9.82382L3.50878 9.09466C3.74159 8.88626 3.92454 8.62816 4.04409 8.33948C4.16364 8.0508 4.21672 7.73893 4.19941 7.42695L4.13899 6.3332C4.12301 6.04074 4.16889 5.74819 4.27362 5.47466C4.37834 5.20112 4.53957 4.95275 4.74678 4.74573C4.95399 4.53872 5.20252 4.37773 5.47615 4.27326C5.74979 4.16879 6.04238 4.1232 6.33482 4.13945L7.42753 4.19987C7.73934 4.21702 8.05101 4.16386 8.3395 4.04432C8.62799 3.92477 8.88591 3.74191 9.0942 3.50924L9.82441 2.69362Z" stroke="#0194F3" stroke-width="2.08333"/>
<path d="M8.77234 8.77174H8.78276V8.78216H8.77234V8.77174ZM13.9807 13.9801H13.9911V13.9905H13.9807V13.9801Z" stroke="#0194F3" stroke-width="3.125" stroke-linejoin="round"/>
<path d="M14.5015 8.2509L8.25146 14.5009" stroke="#0194F3" stroke-width="2.08333" stroke-linecap="round" stroke-linejoin="round"/>
</svg>
