<svg width="25" height="25" viewBox="0 0 25 25" fill="none" xmlns="http://www.w3.org/2000/svg">
<path d="M3.125 7.29165V18.75C3.125 20.7146 3.125 21.6958 3.73542 22.3062C4.34583 22.9166 5.32708 22.9166 7.29167 22.9166H17.7083C19.6729 22.9166 20.6542 22.9166 21.2646 22.3062C21.875 21.6958 21.875 20.7146 21.875 18.75V7.29165M17.7083 7.29165C17.7083 5.91031 17.1596 4.58555 16.1828 3.6088C15.2061 2.63205 13.8813 2.08331 12.5 2.08331C11.1187 2.08331 9.7939 2.63205 8.81715 3.6088C7.8404 4.58555 7.29167 5.91031 7.29167 7.29165" stroke="black" stroke-width="1.5625" stroke-linecap="round" stroke-linejoin="round"/>
<path d="M14.5833 22.9167V18.75C14.5833 18.1975 14.3638 17.6676 13.9731 17.2769C13.5824 16.8862 13.0525 16.6667 12.5 16.6667C11.9474 16.6667 11.4175 16.8862 11.0268 17.2769C10.6361 17.6676 10.4166 18.1975 10.4166 18.75V22.9167M9.37498 3.125H4.65831C4.3354 3.125 4.00727 3.21042 3.7479 3.46771C2.97498 4.23333 2.52915 5.50833 2.08331 7.29167H7.29165M15.625 3.125H20.3416C20.6646 3.125 20.9927 3.21042 21.2521 3.46771C22.025 4.23333 22.4708 5.50833 22.9166 7.29167H17.7083M6.24998 11.4583H6.77081M6.24998 15.1042H6.77081M18.2291 11.4583H18.75M18.2291 15.1042H18.75M10.9375 8.33333V9.89583M10.9375 9.89583V11.4583M10.9375 9.89583H14.0625M14.0625 8.33333V9.89583M14.0625 9.89583V11.4583" stroke="black" stroke-width="1.5625" stroke-linecap="round" stroke-linejoin="round"/>
</svg>
