<svg width="25" height="25" viewBox="0 0 25 25" fill="none" xmlns="http://www.w3.org/2000/svg">
<path d="M17.3828 3.51562C15.4209 3.51562 13.6797 4.29004 12.5 5.62109C11.3203 4.29004 9.5791 3.51562 7.61719 3.51562C5.90842 3.51769 4.27023 4.19741 3.06195 5.4057C1.85366 6.61398 1.17394 8.25217 1.17188 9.96094C1.17188 17.0254 11.5049 22.6699 11.9443 22.9072C12.1151 22.9992 12.306 23.0473 12.5 23.0473C12.694 23.0473 12.8849 22.9992 13.0557 22.9072C13.4951 22.6699 23.8281 17.0254 23.8281 9.96094C23.8261 8.25217 23.1463 6.61398 21.9381 5.4057C20.7298 4.19741 19.0916 3.51769 17.3828 3.51562ZM16.8467 17.418C15.4866 18.5721 14.0327 19.6109 12.5 20.5234C10.9673 19.6109 9.51341 18.5721 8.15332 17.418C6.03711 15.6025 3.51562 12.834 3.51562 9.96094C3.51562 8.87314 3.94775 7.82989 4.71694 7.06069C5.48614 6.2915 6.52939 5.85938 7.61719 5.85938C9.35547 5.85938 10.8105 6.77734 11.415 8.25586C11.503 8.47139 11.6532 8.65584 11.8464 8.78567C12.0397 8.91551 12.2672 8.98485 12.5 8.98485C12.7328 8.98485 12.9603 8.91551 13.1536 8.78567C13.3468 8.65584 13.497 8.47139 13.585 8.25586C14.1895 6.77734 15.6445 5.85938 17.3828 5.85938C18.4706 5.85938 19.5139 6.2915 20.2831 7.06069C21.0522 7.82989 21.4844 8.87314 21.4844 9.96094C21.4844 12.834 18.9629 15.6025 16.8467 17.418Z" fill="#0194F3"/>
</svg>
